<svg width="699" height="109" viewBox="0 0 699 109" fill="none" xmlns="http://www.w3.org/2000/svg">
<path d="M130.573 95.1369V27.0745H144.361V56.2799H143.108C143.108 49.3442 144.027 43.5783 145.865 38.9823C147.704 34.3028 150.419 30.7931 154.013 28.4533C157.689 26.1135 162.244 24.9437 167.675 24.9437H168.427C176.533 24.9437 182.675 27.5759 186.853 32.8404C191.031 38.0213 193.12 45.7927 193.12 56.1546V95.1369H175.697V54.6504C175.697 50.4723 174.486 47.088 172.062 44.4975C169.723 41.907 166.464 40.6118 162.285 40.6118C158.024 40.6118 154.556 41.9488 151.882 44.6228C149.291 47.2133 147.996 50.723 147.996 55.1518V95.1369H130.573ZM242.31 97.5185C236.461 97.5185 231.322 96.5157 226.893 94.5102C222.548 92.5047 218.913 89.8306 215.988 86.4881C213.147 83.062 210.974 79.2599 209.47 75.0817C208.049 70.9035 207.339 66.6418 207.339 62.2965V59.9149C207.339 55.4025 208.049 51.0572 209.47 46.879C210.974 42.6173 213.147 38.857 215.988 35.598C218.913 32.2555 222.506 29.6232 226.768 27.7012C231.029 25.6957 235.96 24.693 241.558 24.693C248.912 24.693 255.054 26.3225 259.984 29.5814C264.998 32.7568 268.758 36.9768 271.265 42.2413C273.772 47.4222 275.026 53.021 275.026 59.0375V65.3048H214.735V54.6504H264.12L258.731 59.9149C258.731 55.5696 258.104 51.8511 256.85 48.7592C255.597 45.6674 253.675 43.2858 251.085 41.6146C248.578 39.9433 245.402 39.1077 241.558 39.1077C237.714 39.1077 234.455 39.9851 231.781 41.7399C229.107 43.4947 227.06 46.0434 225.64 49.386C224.303 52.6449 223.634 56.5724 223.634 61.1684C223.634 65.4301 224.303 69.2323 225.64 72.5748C226.977 75.8338 229.024 78.4242 231.781 80.3462C234.539 82.1846 238.049 83.1038 242.31 83.1038C246.572 83.1038 250.04 82.2681 252.714 80.5969C255.388 78.842 257.101 76.7112 257.853 74.2043H273.897C272.895 78.8838 270.973 82.9784 268.132 86.4881C265.29 89.9978 261.655 92.7136 257.227 94.6355C252.881 96.5575 247.909 97.5185 242.31 97.5185ZM312.769 97.2678C304.914 97.2678 298.814 94.6773 294.469 89.4964C290.207 84.3154 288.076 76.6276 288.076 66.4329V26.9492H305.499V67.937C305.499 72.1152 306.669 75.4577 309.009 77.9646C311.349 80.388 314.524 81.5996 318.535 81.5996C322.546 81.5996 325.805 80.3044 328.312 77.7139C330.902 75.1235 332.198 71.6138 332.198 67.185V26.9492H349.621V95.1369H335.833V66.1822H337.211C337.211 73.0344 336.334 78.7585 334.579 83.3545C332.824 87.9505 330.192 91.4183 326.682 93.7581C323.173 96.0979 318.786 97.2678 313.521 97.2678H312.769ZM369.635 95.1369V27.0745H383.423V55.9039H383.047C383.047 46.127 385.136 38.7316 389.314 33.7178C393.492 28.704 399.634 26.1971 407.739 26.1971H410.246V41.3639H405.483C399.634 41.3639 395.08 42.9516 391.821 46.127C388.645 49.2188 387.058 53.7312 387.058 59.6642V95.1369H369.635ZM454.128 97.5185C448.111 97.5185 442.805 96.5575 438.209 94.6355C433.613 92.7136 429.727 90.1231 426.552 86.8641C423.377 83.5216 420.953 79.7612 419.282 75.5831C417.694 71.4049 416.9 67.0596 416.9 62.5472V59.9149C416.9 55.2354 417.736 50.8065 419.407 46.6284C421.162 42.3666 423.627 38.6063 426.803 35.3473C430.062 32.0048 433.989 29.4143 438.585 27.5759C443.181 25.6539 448.362 24.693 454.128 24.693C459.894 24.693 465.075 25.6539 469.671 27.5759C474.267 29.4143 478.152 32.0048 481.328 35.3473C484.587 38.6063 487.052 42.3666 488.723 46.6284C490.394 50.8065 491.23 55.2354 491.23 59.9149V62.5472C491.23 67.0596 490.394 71.4049 488.723 75.5831C487.135 79.7612 484.754 83.5216 481.579 86.8641C478.403 90.1231 474.517 92.7136 469.921 94.6355C465.325 96.5575 460.061 97.5185 454.128 97.5185ZM454.128 82.6024C458.39 82.6024 461.983 81.6832 464.908 79.8448C467.832 77.9228 470.047 75.3742 471.551 72.1988C473.055 68.9398 473.807 65.263 473.807 61.1684C473.807 56.9902 473.013 53.3134 471.426 50.138C469.921 46.879 467.665 44.3304 464.657 42.492C461.732 40.57 458.223 39.609 454.128 39.609C450.033 39.609 446.482 40.57 443.474 42.492C440.549 44.3304 438.293 46.879 436.705 50.138C435.117 53.3134 434.323 56.9902 434.323 61.1684C434.323 65.263 435.075 68.9398 436.58 72.1988C438.167 75.3742 440.424 77.9228 443.348 79.8448C446.273 81.6832 449.866 82.6024 454.128 82.6024ZM534.689 97.3931C529.925 97.3931 525.538 96.5157 521.527 94.7609C517.516 93.006 514.048 90.5409 511.124 87.3655C508.199 84.1901 505.943 80.5133 504.355 76.3351C502.767 72.0734 501.974 67.4774 501.974 62.5472V59.9149C501.974 55.0683 502.726 50.5141 504.23 46.2523C505.817 41.9906 507.99 38.272 510.748 35.0966C513.589 31.9212 516.973 29.4561 520.901 27.7012C524.912 25.8629 529.341 24.9437 534.187 24.9437C539.535 24.9437 544.215 26.1135 548.226 28.4533C552.32 30.7095 555.579 34.1356 558.003 38.7316C560.426 43.3276 561.763 49.0935 562.014 56.0292L556.875 50.0127V3.635H574.298V95.1369H560.51V66.1822H563.518C563.267 73.118 561.847 78.9256 559.256 83.6052C556.666 88.2011 553.24 91.669 548.978 94.0088C544.8 96.265 540.037 97.3931 534.689 97.3931ZM538.574 82.7277C542 82.7277 545.134 81.9757 547.975 80.4715C550.816 78.8838 553.073 76.6276 554.744 73.7029C556.499 70.6946 557.376 67.1849 557.376 63.1739V58.1601C557.376 54.1491 556.499 50.8065 554.744 48.1325C552.989 45.3749 550.691 43.2858 547.85 41.8652C545.009 40.3611 541.917 39.609 538.574 39.609C534.814 39.609 531.471 40.5282 528.547 42.3666C525.706 44.1215 523.449 46.6284 521.778 49.8873C520.19 53.1463 519.396 56.9484 519.396 61.2937C519.396 65.639 520.232 69.4412 521.903 72.7001C523.575 75.8755 525.831 78.3407 528.672 80.0955C531.597 81.8503 534.897 82.7277 538.574 82.7277ZM597.389 95.1369V27.0745H614.812V95.1369H597.389ZM587.862 40.1104V27.0745H614.812V40.1104H587.862ZM603.781 18.9271C600.355 18.9271 597.806 18.0497 596.135 16.2949C594.547 14.4565 593.754 12.2002 593.754 9.52622C593.754 6.68506 594.547 4.38707 596.135 2.63224C597.806 0.877403 600.355 -1.4077e-05 603.781 -1.4077e-05C607.207 -1.4077e-05 609.714 0.877403 611.302 2.63224C612.89 4.38707 613.683 6.68506 613.683 9.52622C613.683 12.2002 612.89 14.4565 611.302 16.2949C609.714 18.0497 607.207 18.9271 603.781 18.9271ZM648.554 95.1369L627.245 27.0745H645.17L665.601 95.1369H648.554ZM653.693 95.1369V80.8476H672.119V95.1369H653.693ZM660.587 95.1369L678.135 27.0745H694.932L676.506 95.1369H660.587Z" fill="#292929"/>
<circle cx="47.9261" cy="60.8939" r="47.9261" fill="#292929"/>
<path fill-rule="evenodd" clip-rule="evenodd" d="M52.682 34.8748C51.5693 36.1451 49.1537 40.2066 47.3115 43.9028C43.1705 52.2131 39.4953 54.7181 29.4078 56.1045C20.803 57.2878 16.2461 60.327 16.2461 64.8845C16.2461 70.1411 19.9436 71.8454 32.4204 72.3401C45.1006 72.8427 44.0431 72.2227 55.2721 85.7436C59.0221 90.2589 65.0775 90.5504 67.9995 86.3556C70.9531 82.1187 70.5818 80.1492 65.4724 72.9231C59.0785 63.8833 58.635 59.9431 62.8272 49.4153C65.7808 41.9993 66.0629 40.2185 64.697 37.6133C61.7736 32.0347 56.2693 30.7803 52.682 34.8748Z" fill="white"/>
</svg>
