<svg width="699" height="109" viewBox="0 0 699 109" fill="none" xmlns="http://www.w3.org/2000/svg">
<path d="M130.573 95.137V27.0746H144.361V56.28H143.108C143.108 49.3442 144.027 43.5784 145.865 38.9824C147.704 34.3028 150.419 30.7932 154.013 28.4534C157.689 26.1136 162.244 24.9437 167.675 24.9437H168.427C176.533 24.9437 182.675 27.576 186.853 32.8405C191.031 38.0214 193.12 45.7928 193.12 56.1546V95.137H175.697V54.6505C175.697 50.4723 174.486 47.088 172.062 44.4976C169.723 41.9071 166.464 40.6119 162.285 40.6119C158.024 40.6119 154.556 41.9489 151.882 44.6229C149.291 47.2134 147.996 50.723 147.996 55.1519V95.137H130.573ZM242.31 97.5185C236.461 97.5185 231.322 96.5158 226.893 94.5102C222.548 92.5047 218.913 89.8307 215.988 86.4882C213.147 83.0621 210.974 79.2599 209.47 75.0818C208.049 70.9036 207.339 66.6418 207.339 62.2966V59.915C207.339 55.4026 208.049 51.0573 209.47 46.8791C210.974 42.6174 213.147 38.857 215.988 35.5981C218.913 32.2555 222.506 29.6233 226.768 27.7013C231.029 25.6958 235.96 24.693 241.558 24.693C248.912 24.693 255.054 26.3225 259.984 29.5815C264.998 32.7569 268.758 36.9768 271.265 42.2413C273.772 47.4223 275.025 53.021 275.025 59.0376V65.3048H214.734V54.6505H264.12L258.731 59.915C258.731 55.5697 258.104 51.8511 256.85 48.7593C255.597 45.6674 253.675 43.2859 251.085 41.6146C248.578 39.9433 245.402 39.1077 241.558 39.1077C237.714 39.1077 234.455 39.9851 231.781 41.74C229.107 43.4948 227.06 46.0435 225.639 49.386C224.302 52.645 223.634 56.5725 223.634 61.1684C223.634 65.4302 224.302 69.2323 225.639 72.5748C226.976 75.8338 229.024 78.4243 231.781 80.3462C234.539 82.1846 238.049 83.1038 242.31 83.1038C246.572 83.1038 250.04 82.2682 252.714 80.5969C255.388 78.8421 257.101 76.7112 257.853 74.2043H273.897C272.895 78.8839 270.973 82.9785 268.131 86.4882C265.29 89.9978 261.655 92.7136 257.226 94.6356C252.881 96.5575 247.909 97.5185 242.31 97.5185ZM312.769 97.2678C304.914 97.2678 298.814 94.6774 294.469 89.4964C290.207 84.3155 288.076 76.6277 288.076 66.4329V26.9492H305.499V67.9371C305.499 72.1153 306.669 75.4578 309.009 77.9647C311.348 80.388 314.524 81.5997 318.535 81.5997C322.546 81.5997 325.805 80.3045 328.312 77.714C330.902 75.1235 332.197 71.6139 332.197 67.185V26.9492H349.62V95.137H335.832V66.1823H337.211C337.211 73.0344 336.334 78.7585 334.579 83.3545C332.824 87.9505 330.192 91.4184 326.682 93.7582C323.173 96.0979 318.786 97.2678 313.521 97.2678H312.769ZM369.634 95.137V27.0746H383.422V55.904H383.046C383.046 46.127 385.136 38.7317 389.314 33.7179C393.492 28.7041 399.634 26.1972 407.739 26.1972H410.246V41.3639H405.483C399.634 41.3639 395.08 42.9516 391.821 46.127C388.645 49.2189 387.057 53.7313 387.057 59.6643V95.137H369.634ZM454.128 97.5185C448.111 97.5185 442.805 96.5575 438.209 94.6356C433.613 92.7136 429.727 90.1232 426.552 86.8642C423.377 83.5217 420.953 79.7613 419.282 75.5831C417.694 71.405 416.9 67.0597 416.9 62.5472V59.915C416.9 55.2354 417.736 50.8066 419.407 46.6284C421.162 42.3667 423.627 38.6063 426.803 35.3474C430.062 32.0048 433.989 29.4144 438.585 27.576C443.181 25.654 448.362 24.693 454.128 24.693C459.894 24.693 465.075 25.654 469.671 27.576C474.267 29.4144 478.152 32.0048 481.328 35.3474C484.587 38.6063 487.052 42.3667 488.723 46.6284C490.394 50.8066 491.23 55.2354 491.23 59.915V62.5472C491.23 67.0597 490.394 71.405 488.723 75.5831C487.135 79.7613 484.754 83.5217 481.578 86.8642C478.403 90.1232 474.517 92.7136 469.921 94.6356C465.325 96.5575 460.061 97.5185 454.128 97.5185ZM454.128 82.6025C458.39 82.6025 461.983 81.6833 464.908 79.8449C467.832 77.9229 470.047 75.3742 471.551 72.1988C473.055 68.9398 473.807 65.2631 473.807 61.1684C473.807 56.9903 473.013 53.3135 471.425 50.1381C469.921 46.8791 467.665 44.3304 464.657 42.492C461.732 40.5701 458.222 39.6091 454.128 39.6091C450.033 39.6091 446.482 40.5701 443.474 42.492C440.549 44.3304 438.293 46.8791 436.705 50.1381C435.117 53.3135 434.323 56.9903 434.323 61.1684C434.323 65.2631 435.075 68.9398 436.58 72.1988C438.167 75.3742 440.423 77.9229 443.348 79.8449C446.273 81.6833 449.866 82.6025 454.128 82.6025ZM534.688 97.3932C529.925 97.3932 525.538 96.5158 521.527 94.7609C517.516 93.0061 514.048 90.541 511.124 87.3656C508.199 84.1902 505.943 80.5134 504.355 76.3352C502.767 72.0735 501.973 67.4775 501.973 62.5472V59.915C501.973 55.0683 502.725 50.5141 504.23 46.2524C505.817 41.9907 507.99 38.2721 510.748 35.0967C513.589 31.9213 516.973 29.4561 520.901 27.7013C524.912 25.8629 529.34 24.9437 534.187 24.9437C539.535 24.9437 544.215 26.1136 548.226 28.4534C552.32 30.7096 555.579 34.1357 558.003 38.7317C560.426 43.3277 561.763 49.0935 562.014 56.0293L556.875 50.0127V3.63506H574.298V95.137H560.51V66.1823H563.518C563.267 73.118 561.847 78.9257 559.256 83.6052C556.666 88.2012 553.24 91.6691 548.978 94.0089C544.8 96.2651 540.037 97.3932 534.688 97.3932ZM538.574 82.7278C542 82.7278 545.134 81.9757 547.975 80.4716C550.816 78.8839 553.072 76.6277 554.744 73.703C556.499 70.6947 557.376 67.185 557.376 63.174V58.1602C557.376 54.1491 556.499 50.8066 554.744 48.1326C552.989 45.375 550.691 43.2859 547.85 41.8653C545.009 40.3612 541.917 39.6091 538.574 39.6091C534.814 39.6091 531.471 40.5283 528.547 42.3667C525.705 44.1215 523.449 46.6284 521.778 49.8874C520.19 53.1464 519.396 56.9485 519.396 61.2938C519.396 65.6391 520.232 69.4412 521.903 72.7002C523.575 75.8756 525.831 78.3407 528.672 80.0956C531.597 81.8504 534.897 82.7278 538.574 82.7278ZM597.388 95.137V27.0746H614.811V95.137H597.388ZM587.862 40.1105V27.0746H614.811V40.1105H587.862ZM603.781 18.9272C600.355 18.9272 597.806 18.0497 596.135 16.2949C594.547 14.4565 593.753 12.2003 593.753 9.52628C593.753 6.68512 594.547 4.38713 596.135 2.6323C597.806 0.877464 600.355 4.69582e-05 603.781 4.69582e-05C607.207 4.69582e-05 609.714 0.877464 611.302 2.6323C612.889 4.38713 613.683 6.68512 613.683 9.52628C613.683 12.2003 612.889 14.4565 611.302 16.2949C609.714 18.0497 607.207 18.9272 603.781 18.9272ZM648.554 95.137L627.245 27.0746H645.169L665.601 95.137H648.554ZM653.693 95.137V80.8476H672.119V95.137H653.693ZM660.587 95.137L678.135 27.0746H694.931L676.506 95.137H660.587Z" fill="white"/>
<circle cx="47.9261" cy="60.894" r="47.9261" fill="white"/>
<path fill-rule="evenodd" clip-rule="evenodd" d="M52.6819 34.8748C51.5692 36.1451 49.1536 40.2067 47.3114 43.9028C43.1704 52.2132 39.4952 54.7182 29.4077 56.1046C20.8029 57.2878 16.246 60.327 16.246 64.8845C16.246 70.1412 19.9435 71.8455 32.4203 72.3401C45.1005 72.8427 44.043 72.2227 55.272 85.7436C59.022 90.2589 65.0774 90.5504 67.9994 86.3557C70.953 82.1187 70.5817 80.1493 65.4723 72.9232C59.0784 63.8833 58.6349 59.9432 62.8271 49.4154C65.7807 41.9993 66.0628 40.2185 64.6969 37.6133C61.7735 32.0348 56.2692 30.7803 52.6819 34.8748Z" fill="#1E1E1E"/>
</svg>
